PathFileType	4	(X/Y/Z)	Patient4_TMGait_0pt7_01_left_30.trc.trc
DataRate	CameraRate	NumFrames	NumMarkers	Units	OrigDataRate	OrigDataStartFrame	OrigNumFrames
88.050314465409	88.050314465409	4	33	mm	88.050314465409	89	       141
Frame#	Time	Sacral			L.Shoulder			Chest			R.Shoulder			Neck			R.ASIS			L.ASIS			R.Thigh.Superior			R.Thigh.Lateral			R.Thigh.Inferior			R.Patella			L.Thigh.Superior			L.Thigh.Lateral			L.Thigh.Inferior			L.Patella			L.Shank.Superior			L.Shank.Lateral			L.Shank.Inferior			R.Shank.Superior			R.Shank.Lateral			R.Shank.Inferior			R.Heel			R.Midfoot.Superior			R.Midfoot.Lateral			R.Toe			L.Heel			L.Midfoot.Lateral			L.Midfoot.Superior			L.Toe			L.Elbow			L.Wrist			R.Elbow			R.Wrist			
		X1	Y1	Z1	X2	Y2	Z2	X3	Y3	Z3	X4	Y4	Z4	X5	Y5	Z5	X6	Y6	Z6	X7	Y7	Z7	X8	Y8	Z8	X9	Y9	Z9	X10	Y10	Z10	X11	Y11	Z11	X12	Y12	Z12	X13	Y13	Z13	X14	Y14	Z14	X15	Y15	Z15	X16	Y16	Z16	X17	Y17	Z17	X18	Y18	Z18	X19	Y19	Z19	X20	Y20	Z20	X21	Y21	Z21	X22	Y22	Z22	X23	Y23	Z23	X24	Y24	Z24	X25	Y25	Z25	X26	Y26	Z26	X27	Y27	Z27	X28	Y28	Z28	X29	Y29	Z29	X30	Y30	Z30	X31	Y31	Z31	X32	Y32	Z32	X33	Y33	Z33	

89	35.639428571429	813.477788200603	993.029693096215	531.271432364777	1026.069313870061	1415.530003641500	355.806434246131	1114.058353735512	1337.624848066224	522.775156374188	1027.502246953277	1421.701446741479	689.742257086336	1028.514308296878	1476.740067929743	509.931695948050	1038.544564041248	930.982254982099	659.133766555954	1029.954364476593	944.948565967409	380.936456318099	1110.156373589303	750.162903897578	630.131931930851	1047.092452773341	630.958014975138	686.419190010460	1135.521062033455	592.034430086221	609.242635001470	1151.722821661594	501.060867583499	616.746818248438	1074.980595563679	732.183152883375	408.083348196569	993.095282087833	615.808346035993	338.194154991095	1079.422296371730	531.361184123419	397.274532198437	1069.622643241375	443.341072739847	393.433216717102	994.627789498819	388.675566611165	386.837076445276	850.942284547615	361.671685125282	335.080290553555	821.529647213378	237.310975234043	393.545920772644	1125.084518016912	409.353600410120	622.065346723396	1055.576937284670	302.064450208926	680.789020924122	1105.039600027813	209.917181518755	618.426954154753	978.729354002755	42.648105393599	582.578842285322	1148.846744608773	99.070096260752	618.995417397090	1062.084899624129	35.950672364655	656.930424695059	1269.447484672835	49.650399884432	646.007593861006	621.512936211358	189.858632248955	425.300518928449	680.178470790734	142.736236334692	347.205047141655	783.952707312055	143.369855996765	373.315549601476	855.758605942153	35.054126204364	347.341245128577	1029.734393185493	1080.277200224282	215.618251849563	1277.173339515560	1055.529268545936	272.948676278422	907.739643662749	1091.221768318770	799.628308775931	906.880249977939	828.588470664880	787.853491245402	
90	35.650785714286	813.091392114527	994.744026926617	533.960588949081	1025.405159906399	1416.962102218888	357.890168200448	1114.553644033065	1338.404019168301	524.020995588356	1029.520320337511	1422.197496246059	691.957907139845	1029.241210293213	1477.854827429972	512.309167192376	1038.549536918451	932.216775462056	660.796482891048	1029.060350854484	946.099677021949	382.406288864548	1107.971182594733	749.374233944196	633.370970826049	1042.796606315690	631.021867168548	688.305296351281	1131.317344761385	591.353099746952	611.579403760694	1146.358326402925	500.308954563744	618.731265842263	1078.922901690937	736.285359994446	409.647931690417	1000.992451443030	617.990622183592	339.022827898842	1090.407091876757	535.726460457223	397.348520689665	1082.327610619676	446.708295958287	393.151893487918	1006.378870428137	391.832591199350	387.024042887841	861.379317141218	368.247200244156	336.936801702066	830.111205403608	244.146645507881	394.991530663537	1119.022700609184	408.900864661714	623.690303944937	1048.653133927577	301.914226345441	681.916843206671	1097.739415716408	209.652144896352	619.321304852890	970.821694116748	42.639379610528	582.850809253587	1140.989490577044	99.026040083779	619.358245032223	1054.161771375458	35.868900073793	657.142553252344	1261.535057754782	49.521162582212	646.247767582187	629.482710652983	202.041642187269	429.258041432049	685.616314201500	153.900143231295	349.754381117786	790.061566262439	150.741631241307	374.485688325264	857.723424944664	37.727194260610	345.910042810896	1022.640437405625	1080.272126591532	219.921112670284	1269.209030725015	1043.883830750080	276.300459809951	918.706792659988	1088.648090554675	804.310998206293	927.779704916101	826.020820765842	793.235860129428	
91	35.662142857143	812.596839477180	996.467240107891	536.485671551208	1024.635344318494	1418.327803747827	359.803178050597	1114.938853724462	1339.151730698774	525.107361298086	1031.476709987566	1422.703744148568	694.026878655205	1029.855589009644	1478.967203015325	514.496549387073	1038.375256569943	933.426621168995	662.447781907293	1028.303548683692	947.347964475397	383.979238975019	1105.572103160012	748.641948122111	636.483046967569	1038.306560348834	631.112152352211	690.105670917186	1126.895713505737	590.681038459306	613.844782487225	1140.735969771658	499.588997479785	620.676887125775	1082.534190513293	740.668559194395	411.045976881362	1008.397852628904	620.747225871449	339.549619447133	1100.749883360381	540.713381317496	397.091736188718	1094.587567264444	450.827040615999	392.520590127052	1018.038732899046	395.518456145494	386.878416759637	871.969252479183	374.421407575361	338.538284246842	839.635633809565	250.450282384314	396.195237234454	1112.759956757134	408.493293068817	625.256005345037	1041.572567833194	301.784017536200	682.969208352523	1090.344476251735	209.423043186003	620.180436514194	962.871795618860	42.647024929649	583.108963282165	1133.127405428613	98.943724200065	619.694504177228	1046.200290576136	35.798657255942	657.333270254323	1253.600045761604	49.322904052219	646.452515275635	638.875956893334	211.907154299919	433.083952646529	692.852584508586	163.442377165807	352.155511677462	797.786637617125	157.610334094002	375.426624880654	862.378189268889	41.140017941762	344.219946434321	1015.325620817155	1080.303554674781	224.092015517873	1260.370380478076	1031.417952090871	279.183563218937	930.085236049411	1086.290500966280	808.842538048797	949.344429365340	824.046843849550	798.612591332611	
92	35.673500000000	812.023328770942	998.172225833511	538.858539605907	1023.784085078311	1419.632709648211	361.561034140735	1115.217249396631	1339.880825374143	526.056801214645	1033.361734553326	1423.249338974314	695.944887065768	1030.376020253377	1480.075328695424	516.485613369040	1038.048429470165	934.619426156167	664.091737069276	1027.663186383364	948.680849389452	385.664936780600	1102.995637271955	748.005543971777	639.362655519040	1033.709643187531	631.262115723183	691.808376139519	1122.298124221309	590.032141972452	615.982506475567	1134.909015626686	498.914706057367	622.542148720142	1085.809644959152	745.285132860854	412.294133614599	1015.306978172612	624.014899018900	339.802200503799	1110.426855724735	546.237987297656	396.555046781816	1106.354269028753	455.628021738393	391.562649399274	1029.567261256075	399.649502055853	386.414865833889	882.670646104845	380.015920247625	339.809418392272	850.101231117911	256.009394829160	397.081045100205	1106.347350947896	408.142590534742	626.746035460540	1034.374143549933	301.695404703989	683.937488780397	1082.882327668281	209.240017518984	620.999277725890	954.886597800989	42.676345605909	583.352303229746	1125.259311109452	98.845851598426	620.004561299285	1038.210041687185	35.744741956914	657.505452627749	1245.648319797404	49.084517256574	646.626160895995	649.598004770318	219.183834466421	436.539119881724	701.892969444974	171.000015035012	354.253402821975	807.175956353513	163.651061699813	376.070658543623	869.864693097271	45.032811011466	342.372167962125	1007.842913774222	1080.383578295232	228.155125098853	1250.587604780412	1018.175002654066	281.549872812857	941.846428933789	1084.209442801749	813.164876694291	971.539820247031	822.790062771061	803.884133097908	
